<?xml version="1.0" standalone="no"?>
<!DOCTYPE svg PUBLIC "-//W3C//DTD SVG 20010904//EN"
 "http://www.w3.org/TR/2001/REC-SVG-20010904/DTD/svg10.dtd">
<svg version="1.0" xmlns="http://www.w3.org/2000/svg"
 width="1920.000000pt" height="1080.000000pt" viewBox="0 0 1920.000000 1080.000000"
 preserveAspectRatio="xMidYMid meet">
<metadata>
Created by potrace 1.16, written by Peter Selinger 2001-2019
</metadata>
<g transform="translate(0.000000,1080.000000) scale(0.100000,-0.100000)"
fill="#000000" stroke="none">
<path d="M3480 4910 l0 -3400 2010 0 2010 0 0 590 0 590 -1287 2 -1288 3 0
825 0 825 1299 0 1299 0 486 -1417 486 -1418 850 0 850 0 486 1417 486 1418
1299 0 1299 0 0 -825 0 -825 -1287 -3 -1288 -2 0 -590 0 -590 2010 0 2010 0 0
3400 0 3400 -1929 0 -1929 0 -7 -162 c-3 -90 -5 -354 -3 -588 l3 -425 1213 -3
1212 -2 -2 -803 -3 -802 -1825 -3 -1826 -2 -317 -1038 c-338 -1105 -345 -1130
-377 -1273 -17 -75 -59 -338 -60 -371 0 -5 -7 -8 -15 -8 -8 0 -15 3 -15 8 -1
33 -43 296 -60 371 -32 143 -39 168 -377 1273 l-317 1038 -1826 2 -1825 3 -3
802 -2 803 1212 2 1213 3 3 425 c2 234 0 498 -3 588 l-7 162 -1929 0 -1929 0
0 -3400z"/>
</g>
</svg>
